HIERARCHY
ROOT Hips
{
  OFFSET 1.44925e-005 102.336 -0.101585
  CHANNELS 6 Xposition Yposition Zposition Zrotation Xrotation Yrotation
  JOINT LeftUpLeg
  {
    OFFSET 8.9458 -8.66707 0.101652
    CHANNELS 3 Zrotation Xrotation Yrotation
    JOINT LeftLeg
    {
      OFFSET 0 -44.4227 1.3727
      CHANNELS 3 Zrotation Xrotation Yrotation
      JOINT LeftFoot
      {
        OFFSET -0.253549 -42.0924 -1.46059
        CHANNELS 3 Zrotation Xrotation Yrotation
        JOINT LeftToes
        {
          OFFSET -0.04 -4.41509 8.4991
          CHANNELS 3 Zrotation Xrotation Yrotation
          End Site
          {
            OFFSET 0.08 -0.047448 9.77979
          }
        }
      }
    }
  }
  JOINT Spine
  {
    OFFSET 0 11.8905 0
    CHANNELS 3 Zrotation Xrotation Yrotation
    JOINT Spine1
    {
      OFFSET 0 25.6574 0.127663
      CHANNELS 3 Zrotation Xrotation Yrotation
      JOINT RightShoulder
      {
        OFFSET -8.99 -0.362252 -0.22
        CHANNELS 3 Zrotation Xrotation Yrotation
        JOINT RightArm
        {
          OFFSET -10.2827 -0.00338 0.322123
          CHANNELS 3 Zrotation Xrotation Yrotation
          JOINT RightForeArm
          {
            OFFSET -26.364 0.099144 -1.42434
            CHANNELS 3 Zrotation Xrotation Yrotation
            JOINT RightHand
            {
              OFFSET -22.0324 0.085362 1.02216
              CHANNELS 3 Zrotation Xrotation Yrotation
              End Site
              {
                OFFSET -13.3284 -0.6 1.50291
              }
            }
          }
        }
      }
      JOINT LeftShoulder1
      {
        OFFSET 8.99 -0.362252 -0.22
        CHANNELS 3 Zrotation Xrotation Yrotation
        JOINT LeftArm
        {
          OFFSET 10.2827 -0.00337999 0.322123
          CHANNELS 3 Zrotation Xrotation Yrotation
          JOINT LeftForeArm
          {
            OFFSET 26.2597 0.099144 -1.42434
            CHANNELS 3 Zrotation Xrotation Yrotation
            JOINT LeftHand
            {
              OFFSET 22.0902 0.085362 1.02216
              CHANNELS 3 Zrotation Xrotation Yrotation
              End Site
              {
                OFFSET 13.419 -0.6 1.50291
              }
            }
          }
        }
      }
      JOINT Head
      {
        OFFSET 0 8.73416 0.011341
        CHANNELS 3 Zrotation Xrotation Yrotation
        End Site
        {
          OFFSET -0.29 12.7742 2.51395
        }
      }
    }
  }
  JOINT RightUpLeg
  {
    OFFSET -8.9458 -8.66707 0.101652
    CHANNELS 3 Zrotation Xrotation Yrotation
    JOINT RightLeg
    {
      OFFSET 0 -44.4227 1.3727
      CHANNELS 3 Zrotation Xrotation Yrotation
      JOINT RightFoot
      {
        OFFSET 0.253549 -42.0924 -1.46059
        CHANNELS 3 Zrotation Xrotation Yrotation
        JOINT RightToes
        {
          OFFSET 0.04 -4.41509 8.4991
          CHANNELS 3 Zrotation Xrotation Yrotation
          End Site
          {
            OFFSET -0.08 -0.137448 9.77979
          }
        }
      }
    }
  }
}
MOTION
Frames:	21
Frame Time:	0.0333333
-150.839 101.859 -2.47007 -0.669766 -0.783101 -89.1884 -1.987 0.656297 0.989977 0.163941 7.71919 18.2147 -1.60761 -11.9075 0.00278546 -1.32433e-009 8.75231e-006 -1.46503e-008 -1.8291 5.17237 -0.975796 0.8583 -5.4088 -1.08439 36.9555 1.75281 0.0720873 42.8403 -19.1159 6.15743 8.2721 43.6437 6.83796 -6.28938 9.66539 -0.579272 -44.0032 3.52484 -3.4562 -29.0492 -12.1473 3.56928 -4.73869 36.1479 -14.3195 5.82328 9.61819 -0.917488 -1.97912 -8.10444 -2.39316 1.55218 0.621715 -2.44387 0.315223 9.11943 -12.5064 -0.148573 -13.5686 -0.216153 0.0462048 0.000530889 0.662642 
-150.848 101.859 -2.4507 -0.641265 -0.833685 -89.2045 -2.04533 0.639351 0.960706 0.136279 7.70222 18.2625 -1.56123 -11.8917 0.0027853 -1.32433e-009 8.75231e-006 -1.46503e-008 -1.8792 5.11556 -0.974684 0.830807 -5.35888 -1.07141 36.996 1.75281 0.0688807 42.7835 -19.0024 6.15795 8.22599 43.6222 6.92724 -6.2724 9.6614 -0.476016 -44.0651 3.53127 -3.45622 -28.9329 -12.2249 3.45544 -4.86323 36.2078 -14.1664 5.82328 9.61819 -0.917488 -1.86969 -8.09741 -2.34723 1.47684 0.579295 -2.50322 0.319452 9.15995 -12.4405 -0.074919 -13.6175 -0.215627 0.0462048 0.000530889 0.662642 
-150.859 101.859 -2.41089 -0.62966 -0.878245 -89.184 -2.10312 0.634079 0.940302 0.10073 7.69489 18.2708 -1.48759 -11.8848 0.00278522 -1.32433e-009 8.75231e-006 -1.46503e-008 -1.86124 5.07502 -0.978488 0.719869 -5.27422 -1.05724 37.0826 1.75281 0.0580646 42.7027 -18.9238 6.18524 8.17757 43.6188 7.00773 -6.29248 9.6535 -0.321843 -44.1568 3.5403 -3.45626 -28.7397 -12.395 3.22876 -4.91591 36.5465 -14.0318 5.82328 9.61819 -0.917488 -1.71428 -8.05366 -2.25815 1.39653 0.558623 -2.57365 0.327655 9.20141 -12.3962 -0.0403119 -13.6675 -0.213143 0.0462048 0.000530889 0.662642 
-150.862 101.859 -2.36442 -0.653908 -0.866191 -89.0781 -2.10693 0.625979 0.947634 0.089242 7.75135 18.1683 -1.42588 -11.9053 0.00285978 -1.32433e-009 8.75231e-006 -1.46503e-008 -1.73967 5.13357 -1.01166 0.561717 -5.25742 -1.0684 37.101 1.75281 0.0507708 42.7236 -18.9248 6.21926 8.1746 43.6082 7.01381 -6.38646 9.64814 -0.294503 -44.1939 3.542 -3.45626 -28.6003 -12.5086 2.99383 -4.92868 36.8921 -13.9441 5.82328 9.61819 -0.917488 -1.63106 -8.01536 -2.23039 1.38945 0.599356 -2.58452 0.327646 9.19108 -12.4888 -0.058036 -13.6765 -0.209663 0.0462048 0.000530889 0.662642 
-150.855 101.859 -2.32117 -0.700309 -0.820922 -88.9227 -2.08484 0.62432 0.95781 0.108132 7.82929 18.0085 -1.40182 -11.9315 0.00306467 -1.32433e-009 8.75231e-006 -1.46503e-008 -1.61276 5.28977 -1.05617 0.442947 -5.36019 -1.09974 37.0213 1.75281 0.0491249 42.8034 -18.7799 6.21474 8.22193 43.4073 7.01767 -6.50365 9.64985 -0.439204 -44.1788 3.53878 -3.45625 -28.5496 -12.3052 2.84235 -5.0285 36.7512 -13.8781 5.82328 9.61819 -0.917488 -1.6509 -8.03439 -2.31289 1.43058 0.690278 -2.54993 0.316054 9.12 -12.6731 -0.0170619 -13.6565 -0.205878 0.0462048 0.000530889 0.662642 
-150.85 101.859 -2.28284 -0.750676 -0.789657 -88.7995 -2.08401 0.664878 0.948574 0.141411 7.83687 17.8944 -1.41202 -11.9352 0.0031389 -1.32433e-009 8.75231e-006 -1.46503e-008 -1.54759 5.46219 -1.07595 0.383252 -5.51607 -1.11495 36.97 1.75281 0.0498757 42.7839 -18.4441 6.17531 8.3082 42.9541 7.04931 -6.55681 9.6585 -0.667662 -44.1591 3.53539 -3.45591 -28.5501 -11.8198 2.78704 -5.0957 36.2386 -13.9421 5.82328 9.61819 -0.917488 -1.71263 -8.0849 -2.43626 1.45621 0.796379 -2.52589 0.302369 9.02465 -12.8093 0.111043 -13.6352 -0.202605 0.0462048 0.000530889 0.662642 
-150.852 101.859 -2.24678 -0.796355 -0.781116 -88.7439 -2.10749 0.747426 0.930079 0.168949 7.76768 17.8574 -1.41673 -11.9153 0.00310651 -1.32433e-009 8.75231e-006 -1.46503e-008 -1.5214 5.56293 -1.05864 0.34267 -5.60784 -1.09338 37.0259 1.75281 0.0517696 42.6693 -18.2463 6.15244 8.37645 42.5483 7.06065 -6.51757 9.67004 -0.876608 -44.1297 3.53131 -3.45222 -28.5882 -11.4743 2.75699 -4.95185 36.0303 -14.169 5.82328 9.61819 -0.917488 -1.72226 -8.09457 -2.48855 1.44962 0.887773 -2.53264 0.294029 8.95217 -12.8458 0.21101 -13.6231 -0.200639 0.0462048 0.000530889 0.662642 
-150.861 101.861 -2.21375 -0.842133 -0.774404 -88.7207 -2.12575 0.834359 0.926621 0.180728 7.7021 17.8425 -1.38735 -11.8927 0.00299185 -1.32433e-009 8.75231e-006 -1.46503e-008 -1.51063 5.58695 -1.02415 0.318448 -5.59997 -1.05522 37.097 1.75281 0.053553 42.6225 -18.4033 6.16033 8.33307 42.5328 7.07632 -6.41982 9.67954 -0.998271 -44.0578 3.52011 -3.44097 -28.669 -11.5177 2.69901 -4.70382 36.3433 -14.3764 5.82328 9.61819 -0.917488 -1.64923 -8.05845 -2.44698 1.4403 0.965529 -2.54772 0.288273 8.91219 -12.8529 0.196518 -13.6115 -0.200205 0.0462048 0.000530889 0.662642 
-150.868 101.864 -2.187 -0.894449 -0.764079 -88.6967 -2.12788 0.90232 0.943929 0.176266 7.68819 17.8078 -1.35354 -11.8859 0.0028192 -1.32433e-009 8.75231e-006 -1.46503e-008 -1.51903 5.59996 -0.993473 0.31737 -5.56317 -1.02428 37.1103 1.75281 0.0541289 42.666 -18.6339 6.15032 8.16718 42.7762 7.19781 -6.28455 9.68503 -1.00383 -43.9693 3.50877 -3.43187 -28.7439 -11.6885 2.64831 -4.63179 36.6069 -14.3894 5.82328 9.61819 -0.917488 -1.55002 -8.04938 -2.41016 1.44249 1.04689 -2.55469 0.286677 8.87919 -12.8771 0.136418 -13.5927 -0.200708 0.0462048 0.000530889 0.662642 
-150.87 101.865 -2.16557 -0.944044 -0.762262 -88.686 -2.13002 0.948702 0.966873 0.16023 7.70482 17.7802 -1.36251 -11.8996 0.00261264 -1.32433e-009 8.75231e-006 -1.46503e-008 -1.5105 5.63069 -0.968332 0.271465 -5.55512 -0.99265 37.159 1.75281 0.052306 42.6315 -18.5827 6.09529 8.01244 42.8109 7.40473 -6.11001 9.68795 -0.935771 -43.922 3.50649 -3.43517 -28.7409 -11.688 2.65378 -4.78905 36.4134 -14.2529 5.82328 9.61819 -0.917488 -1.48429 -8.09941 -2.47202 1.43878 1.12081 -2.55972 0.279054 8.84712 -12.8775 0.129822 -13.5759 -0.201511 0.0462048 0.000530889 0.662642 
-150.869 101.863 -2.14479 -0.968097 -0.771931 -88.6969 -2.14422 0.958445 0.978451 0.141725 7.7339 17.7881 -1.39557 -11.9238 0.00239613 -1.32433e-009 8.75231e-006 -1.46503e-008 -1.44302 5.63024 -0.946757 0.132703 -5.54089 -0.950481 37.3138 1.75281 0.0444476 42.4603 -18.3026 6.03671 7.98253 42.4538 7.56473 -5.93246 9.68898 -0.883438 -43.9239 3.50954 -3.4426 -28.6645 -11.6389 2.68459 -4.98923 36.1221 -14.0927 5.82328 9.61819 -0.917488 -1.44337 -8.15701 -2.59407 1.41671 1.14403 -2.57039 0.268925 8.85207 -12.8375 0.163505 -13.5833 -0.201989 0.0462048 0.000530889 0.662642 
-150.865 101.858 -2.12344 -0.957998 -0.781914 -88.6804 -2.16403 0.916328 0.970702 0.132896 7.78749 17.7908 -1.38209 -11.9444 0.00219359 -1.32433e-009 8.75231e-006 -1.46503e-008 -1.37757 5.57231 -0.941521 0.020723 -5.48067 -0.928252 37.4425 1.75281 0.0360759 42.3203 -18.0495 6.01659 8.01695 42.0167 7.64594 -5.83336 9.68889 -0.873445 -43.9566 3.51269 -3.44145 -28.5731 -11.7808 2.68472 -5.13769 36.1933 -13.9066 5.82328 9.61819 -0.917488 -1.40323 -8.19995 -2.67714 1.38721 1.09946 -2.58736 0.274722 8.91956 -12.8295 0.191245 -13.6279 -0.201414 0.0462048 0.000530889 0.662642 
-150.858 101.851 -2.10409 -0.936541 -0.78438 -88.5883 -2.17995 0.847536 0.946762 0.139949 7.8615 17.7308 -1.30691 -11.9589 0.00202911 -1.32433e-009 8.75231e-006 -1.46503e-008 -1.42733 5.52578 -0.966099 0.108596 -5.43067 -0.966187 37.3877 1.75281 0.0385644 42.3484 -17.8871 6.02086 8.01653 41.8561 7.70216 -5.86154 9.68814 -0.852593 -44.0429 3.51711 -3.43729 -28.4758 -11.9917 2.68219 -5.28005 36.4927 -13.6809 5.82328 9.61819 -0.917488 -1.39809 -8.28137 -2.72395 1.3638 1.03154 -2.61125 0.299467 9.01847 -12.9061 0.242039 -13.6958 -0.199653 0.0462048 0.000530889 0.662642 
-150.849 101.845 -2.08598 -0.933974 -0.784973 -88.4557 -2.1964 0.802026 0.917089 0.156521 7.92386 17.6301 -1.24376 -11.9748 0.00192683 -1.32433e-009 8.75231e-006 -1.46503e-008 -1.59821 5.5644 -1.00732 0.381076 -5.47475 -1.04961 37.2002 1.75281 0.0523977 42.4736 -17.7615 6.01535 8.01204 41.9721 7.70658 -5.97688 9.6871 -0.809172 -44.2127 3.53368 -3.44443 -28.3369 -11.9668 2.75423 -5.39509 36.6205 -13.5384 5.82328 9.61819 -0.917488 -1.4617 -8.39597 -2.8045 1.34204 0.994288 -2.64248 0.328827 9.10211 -13.0086 0.328601 -13.7584 -0.198093 0.0462048 0.000530889 0.662642 
-150.842 101.842 -2.06588 -0.950391 -0.798736 -88.3607 -2.22837 0.797033 0.885025 0.173343 7.95123 17.5666 -1.25289 -11.9876 0.00191082 -1.32433e-009 8.75231e-006 -1.46503e-008 -1.78457 5.65492 -1.03315 0.651637 -5.59626 -1.11804 37.048 1.75281 0.06764 42.5593 -17.7013 5.98482 8.06719 42.1171 7.61733 -6.091 9.68593 -0.814818 -44.4179 3.55802 -3.46137 -28.1751 -11.6772 2.90575 -5.38746 36.4935 -13.5994 5.82328 9.61819 -0.917488 -1.53783 -8.4295 -2.89393 1.30748 0.985227 -2.67876 0.34731 9.1683 -13.0526 0.363961 -13.8026 -0.196116 0.0462048 0.000530889 0.662642 
-150.841 101.839 -2.04648 -0.962786 -0.826701 -88.3159 -2.27665 0.808951 0.845631 0.190006 7.9477 17.5586 -1.29823 -11.9841 0.00200506 -1.32433e-009 8.75231e-006 -1.46503e-008 -1.8981 5.70833 -1.0317 0.784215 -5.69681 -1.13784 36.9964 1.75281 0.0759148 42.5715 -17.6984 5.92343 8.1313 42.0963 7.53696 -6.14634 9.68488 -0.907842 -44.5512 3.57433 -3.47323 -28.0704 -11.3711 3.05528 -5.27054 36.304 -13.7904 5.82328 9.61819 -0.917488 -1.55032 -8.34753 -2.91581 1.26178 0.973334 -2.71606 0.354976 9.23158 -13.0463 0.302064 -13.8357 -0.193872 0.0462048 0.000530889 0.662642 
-150.844 101.837 -2.0347 -0.968134 -0.848167 -88.2708 -2.31245 0.820654 0.811644 0.206186 7.93543 17.5409 -1.3108 -11.974 0.00223371 -1.32433e-009 8.75231e-006 -1.46503e-008 -1.90128 5.70141 -1.02042 0.755906 -5.71604 -1.12225 37.0192 1.75281 0.0753418 42.529 -17.641 5.8424 8.14627 41.9119 7.5631 -6.15559 9.68442 -1.01941 -44.5496 3.5742 -3.47323 -28.0625 -11.2437 3.13077 -5.16494 36.227 -13.93 5.82328 9.61819 -0.917488 -1.52151 -8.29414 -2.90889 1.22999 0.970375 -2.74657 0.362196 9.26735 -13.0551 0.247493 -13.8621 -0.191508 0.0462048 0.000530889 0.662642 
-150.848 101.836 -2.03024 -0.986144 -0.845911 -88.21 -2.31141 0.83743 0.809438 0.213671 7.93924 17.4775 -1.29198 -11.9807 0.00262104 -1.32433e-009 8.75231e-006 -1.46503e-008 -1.78392 5.67777 -1.01315 0.583035 -5.67768 -1.08833 37.1149 1.75281 0.0672437 42.4287 -17.5475 5.78973 8.18656 41.7381 7.56439 -6.16908 9.68514 -1.0609 -44.4429 3.56262 -3.46661 -28.1193 -11.3188 3.12977 -5.12561 36.3649 -13.9377 5.82328 9.61819 -0.917488 -1.51454 -8.36793 -2.94869 1.22668 1.00687 -2.76444 0.376151 9.25342 -13.0945 0.289393 -13.8777 -0.189163 0.0462048 0.000530889 0.662642 
-150.852 101.834 -2.0258 -1.01281 -0.836571 -88.162 -2.29965 0.853347 0.824258 0.214753 7.9614 17.4173 -1.29459 -11.9968 0.00319112 -1.32433e-009 8.75231e-006 -1.46503e-008 -1.61575 5.65598 -1.00534 0.347786 -5.62456 -1.04503 37.2698 1.75281 0.0548907 42.2951 -17.6013 5.81006 8.32124 41.7609 7.37844 -6.19714 9.6874 -1.0409 -44.3138 3.54817 -3.45771 -28.1987 -11.5135 3.08854 -5.11008 36.6716 -13.8781 5.82328 9.61819 -0.917488 -1.51988 -8.47372 -2.96459 1.2265 1.05196 -2.7795 0.39691 9.23497 -13.1309 0.355592 -13.8867 -0.186985 0.0462048 0.000530889 0.662642 
-150.853 101.832 -2.01965 -1.01721 -0.849621 -88.1154 -2.32256 0.846302 0.800603 0.228895 7.97745 17.3961 -1.32496 -11.9932 0.00396772 -1.32433e-009 8.75231e-006 -1.46503e-008 -1.5302 5.60639 -0.998378 0.206727 -5.54745 -1.01641 37.3937 1.75281 0.0435643 42.2068 -17.8142 5.88271 8.44057 41.9579 7.14549 -6.16838 9.69148 -1.05184 -44.2361 3.53755 -3.44846 -28.2773 -11.6911 3.02752 -5.09848 36.8882 -13.8366 5.82328 9.61819 -0.917488 -1.50773 -8.53826 -2.86565 1.19805 1.04893 -2.81129 0.421349 9.2596 -13.1587 0.367137 -13.9022 -0.185128 0.0462048 0.000530889 0.662642 
-150.847 101.831 -2.01682 -0.999186 -0.878808 -88.0296 -2.36891 0.818763 0.734252 0.258524 7.97779 17.3664 -1.33424 -11.9738 0.0049748 -1.32433e-009 8.75231e-006 -1.46503e-008 -1.55016 5.52172 -1.00495 0.208838 -5.41487 -1.02106 37.4238 1.75281 0.0361092 42.197 -17.9551 5.94205 8.39282 42.1168 7.1462 -6.00847 9.70142 -1.14448 -44.2343 3.5348 -3.44392 -28.3249 -11.7588 2.94849 -5.10727 36.8448 -13.8279 5.82328 9.61819 -0.917488 -1.51721 -8.65613 -2.77183 1.15267 1.01744 -2.86389 0.450858 9.29311 -13.1978 0.378906 -13.9279 -0.183739 0.0462048 0.000530889 0.662642 
